<svg xmlns="http://www.w3.org/2000/svg" viewBox="0 0 973.3 698.55"><g data-name="Layer 2"><g data-name="Layer 1"><path fill="#f96440" d="M258.59 634.27l23 44.69 9.58-4.93-23.82-46.28"/><path class="cls-2" d="M269.86 636.55l10.49 20.4-10.3 3.51-8.95-17.38 8.76-6.53z"/><path class="cls-3" d="M293.58 674.81l-14.36 7.39-24.23-47.08 4.79-2.47 21.76 42.3 4.79-2.47-22.59-43.88 4.79-2.47 25.05 48.68z"/><path class="cls-4" d="M237.78 663.15L459.51 549a37.22 37.22 0 0 0 16.06-50.13l-195.1-379.04a37.22 37.22 0 0 0-50.13-16.06L8.61 217.89a13.15 13.15 0 0 0-5.67 17.71l217.13 421.88a13.15 13.15 0 0 0 17.71 5.67z"/><path class="cls-5" d="M231.17 105.37L9.44 219.48a13.13 13.13 0 0 0-7.06 10.33 13.14 13.14 0 0 1 3.14-2.25l221.73-114.12a37.22 37.22 0 0 1 50.13 16.06l195.1 379.08a37.08 37.08 0 0 1 2.08 29.13 37.18 37.18 0 0 0 1.84-37.2L281.3 121.43a37.22 37.22 0 0 0-50.13-16.06z"/><path class="cls-6" d="M18.49 214.82l-5.86 3A13.15 13.15 0 0 0 7 235.55l217.08 421.88a13.15 13.15 0 0 0 17.71 5.68l5.86-3z"/><path class="cls-3" d="M462 551.82L240.22 665.93a15.86 15.86 0 0 1-21.34-6.84L1.75 237.22a15.86 15.86 0 0 1 6.84-21.34l221.73-114.12A40 40 0 0 1 284.08 119l195.1 379.08A40 40 0 0 1 462 551.82zM11.06 220.67a10.47 10.47 0 0 0-4.51 14.09l217.12 421.87a10.47 10.47 0 0 0 14.09 4.51L459.49 547a34.57 34.57 0 0 0 14.9-46.5l-195.1-379.05a34.57 34.57 0 0 0-46.5-14.9z"/><path class="cls-2" d="M321 290l-26.78-26.56-43.09-42.75-.95-.94a9.36 9.36 0 0 0-13.23.05l-.94.95-132.79 133.86-.94 1a9.36 9.36 0 0 0 .05 13.23l35.41 35.13 34.46 34.13 1 .94a9.36 9.36 0 0 0 13.23-.05L321.1 303.18A9.36 9.36 0 0 0 321 290z"/><rect class="cls-5" x="108.19" y="261.29" width="210" height="118.46" rx="5.96" ry="5.96" transform="rotate(-40.04 213.22199866 320.5550465)"/><path d="M215.83 395.67l-36.73 30.88a10.7 10.7 0 0 1-15.1-1.31l-62.45-74.32a7.48 7.48 0 0 1-.65-.88c12.6 2.64 26.28 2.42 39.19 1.59 6.87-.45 13.8-1 20.62-.18 17.81 2.16 33.39 13.64 44.4 27.78a122.71 122.71 0 0 1 10.72 16.44z" fill="#ded6d3" opacity=".2"/><path class="cls-3" d="M177.55 431a12.06 12.06 0 0 1-14.72-3l-64.18-76.37a12.06 12.06 0 0 1 1.47-17l146.45-123.05a12 12 0 0 1 17 1.47l64.18 76.36a12.06 12.06 0 0 1-1.47 17L179.81 429.47a12.17 12.17 0 0 1-2.26 1.53zm73.72-216.09a6.64 6.64 0 0 0-1.24.83L103.59 338.78a6.67 6.67 0 0 0-.81 9.39L167 424.53a6.67 6.67 0 0 0 9.39.81l146.4-123.07a6.67 6.67 0 0 0 .81-9.39l-64.18-76.36a6.67 6.67 0 0 0-8.15-1.64z"/><path class="cls-2" d="M201.84 128a12.09 12.09 0 0 0-16.28-5.22l-8.83 4.55a12.08 12.08 0 0 0-6 14.21 12 12 0 0 0 1.31 4.84l224.64 436.54a12.09 12.09 0 0 0 16.32 5.21l8.83-4.55a15.86 15.86 0 0 0 4.72-19.05z"/><rect x="290.72" y="89.99" width="34.1" height="515.14" rx="12.75" ry="12.75" transform="rotate(-27.23 307.82417039 347.58891959)" fill="#938d35"/><path d="M195.94 118.51l234.47 455.58a3.18 3.18 0 0 1-.36.2l-4.42 2.28-234.5-455.64 3.69-1.9q.54-.28 1.12-.52z" fill="#dae23b"/><path class="cls-11" d="M179.43464857 123.67716336l1.59162668-.81903878 235.71844444 458.06837977-1.59162667.81903878zM185.035959 122.8112235l1.59162668-.81903878 235.71844445 458.06837977-1.59162668.81903877zM189.81493443 120.34322705l1.59162668-.81903877 235.71844444 458.06837977-1.59162668.81903878zM194.6084855 117.88412238l1.59162667-.81903878 235.71844445 458.06837978-1.59162668.81903877zM199.40203655 115.4250177l1.59162668-.81903877 235.71844445 458.06837978-1.59162668.81903877z"/><path class="cls-3" d="M431 577.86l-8.83 4.55a14.79 14.79 0 0 1-19.9-6.38L177.55 139.49a14.79 14.79 0 0 1 6.38-19.9l8.83-4.55a14.79 14.79 0 0 1 19.9 6.38L437.33 558a14.79 14.79 0 0 1-6.33 19.86zM186.39 124.38a9.4 9.4 0 0 0-4.06 12.62L407 573.57a9.4 9.4 0 0 0 12.65 4.05l8.83-4.55a9.4 9.4 0 0 0 4.05-12.65L207.87 123.88a9.4 9.4 0 0 0-12.65-4.05z"/><rect x="323.62" y="3.18" width="505.21" height="690.55" rx="25.33" ry="25.33" fill="#1dcdff"/><path d="M828.83 435.39v217c0 22.84-10.83 41.35-24.19 41.35H347.81c-13.36 0-24.19-18.51-24.19-41.35V526.88c30.8 34.58 65.86 57.91 101.82 72.4 43.42 17.52 88.25 22.63 132.85 23.38 53.32.91 107.56-4.57 157.76-35.26 46.03-28.15 88.69-79.88 112.78-152.01z" fill="#1ab5e1"/><path d="M506.28 4.92c-47.59 13.65-113.7.48-154.78 50.64-19.5 23.79-24.29 69.91-27.43 108.06l.06-106.78c0-13.68.27-28.61 5.45-39C336 4.91 347.2 3.92 357.08 3.93c48.54.07 101.61-8.93 149.2.99z" fill="#4ed9ff"/><rect class="cls-15" x="323.14" y="4" width="505.21" height="690.55" rx="25.33" ry="25.33"/><rect class="cls-5" x="371.39" y="48.69" width="410.18" height="594.59" rx="15.86" ry="15.86"/><path class="cls-16" d="M781.07 65.56V181H370.9V65.56c0-8.86 5.87-16 13.12-16H768c7.2-.04 13.07 7.14 13.07 16z"/><rect class="cls-15" x="370.9" y="47.7" width="410.18" height="598.89" rx="15.86" ry="15.86"/><path class="cls-5" d="M441.68 126.43h267.94v23.16H441.68z"/><path class="cls-17" d="M564.42 298.98H433.33v-5.51h131.09zM718.64 311.1h-285.3v-5.51h285.3zM564.42 323.22H433.33v-5.51h131.09zM718.64 335.33h-285.3v-5.51h285.3zM564.42 347.46H433.33v-5.51h131.09zM718.64 359.57h-285.3v-5.51h285.3z"/><path class="cls-18" d="M761.23 85.77h-98.41V74.19h98.41zM649.25 85.77h-98.41V74.19h98.41z"/><circle class="cls-18" cx="401.91" cy="79.98" r="11.16"/><circle class="cls-16" cx="472.61" cy="237.33" r="24.81"/><rect x="657.03" y="215" width="47.14" height="47.14" rx="14.9" ry="14.9" fill="#958fee"/><path class="cls-18" d="M573.11 218.54a4 4 0 0 1 7 0l10.84 18.77 10.84 18.77a4 4 0 0 1-3.49 6h-43.37a4 4 0 0 1-3.49-6l10.84-18.77z"/><rect class="cls-4" x="773.09" y="146.77" width="116.65" height="533.51" rx="21.48" ry="21.48" transform="rotate(20 822.30033557 405.5352349)"/><path class="cls-6" d="M958.12 177l-16.21-5.78a16.51 16.51 0 0 1 10 21.09L783.79 663.75a16.51 16.51 0 0 1-21.09 10l16.21 5.78a16.51 16.51 0 0 0 21.09-10l168.12-471.41a16.51 16.51 0 0 0-10-21.12z"/><path class="cls-2" d="M958.12 177l-78.77-28.09a16.51 16.51 0 0 0-21.09 10l-6.42 18a16.51 16.51 0 0 1 21.09-10L951.7 195a16.51 16.51 0 0 1 10 21.09l6.42-18a16.51 16.51 0 0 0-10-21.09z"/><path class="cls-3" d="M938.47298195 218.74409704l1.92832306-5.40640086 18.00877776 6.42326427-1.92832306 5.40640085zM933.32874079 233.15633321l1.92832306-5.40640085 18.00877775 6.42326427-1.92832306 5.40640085zM928.18508081 247.56520995l1.92832306-5.40640085 18.00877776 6.42326426-1.92832306 5.40640086zM908.3152896 258.24637371l1.9537786-5.39725385 35.95661799 13.016114-1.95377862 5.39725385zM920.90135232 273.67698635l1.92832306-5.40640086 18.00877775 6.42326427-1.92832306 5.40640085zM915.76711116 288.08922251l1.92832306-5.40640085 18.00877776 6.42326427-1.92832306 5.40640085zM910.63287 302.5014587l1.92832306-5.40640085 18.00877775 6.42326427-1.92832306 5.40640085zM890.5868 313.374l1.9516-5.3956L928.484 320.98l-1.9516 5.3956zM903.33972269 328.60987565l1.92832305-5.40640085 18.00877776 6.42326427-1.92832306 5.40640085zM898.20548152 343.02211183l1.92832306-5.40640086 18.00877776 6.42326427-1.92832306 5.40640086zM893.06124037 357.434348l1.92832306-5.40640084 18.00877775 6.42326426-1.92832305 5.40640086zM869.91566709 365.41350443l1.92832306-5.40640085 36.0175555 12.84652854-1.92832306 5.40640085zM882.18308328 382.26352969l1.92832306-5.40640085 18.00877775 6.42326426-1.92832306 5.40640086zM877.03884211 396.67576587l1.92832306-5.40640086 18.00877775 6.42326427-1.92832306 5.40640086zM871.90460096 411.07800205l1.92832306-5.40640085 18.00877775 6.42326427-1.92832306 5.40640085zM851.49524534 422.33556283l1.95377861-5.39725385 35.95661798 13.016114-1.95377862 5.39725385zM862.8105893 436.55622017l1.92832306-5.40640086 18.00877776 6.42326427-1.92832306 5.40640085zM857.6797076 450.95903753l1.92832306-5.40640085 18.00877775 6.42326427-1.92832306 5.40640085zM852.53546644 465.37127372l1.92832306-5.40640085 18.00877775 6.42326427-1.92832306 5.40640085zM831.95536918 476.80249102l1.95377862-5.39725385 35.95661798 13.016114-1.95377862 5.39725385zM845.24895967 491.48910949l1.92832306-5.40640085 18.00877775 6.42326426-1.92832306 5.40640086zM840.1147185 505.90134566l1.92832307-5.40640085 18.00877775 6.42326427-1.92832306 5.40640085zM834.9738368 520.30416303l1.92832307-5.40640085 18.00877775 6.42326426-1.92832306 5.40640086zM814.2172 531.9304l1.9516-5.3956 35.9456 13.0016-1.9516 5.3956zM825.88982515 545.78238115l1.92832306-5.40640085 18.00877776 6.42326427-1.92832306 5.40640085zM820.745584 560.19461734l1.92832305-5.40640085 18.00877775 6.42326427-1.92832305 5.40640085zM815.61134284 574.60685352l1.92832306-5.40640085 18.00877775 6.42326427-1.92832306 5.40640085zM792.46576955 582.58600994l1.92832306-5.40640085 36.0175555 12.84652853-1.92832306 5.40640085zM806.53010945 600.07901227l1.92832306-5.40640085 18.00877775 6.42326426-1.92832306 5.40640086zM801.38644948 614.487889l1.92832306-5.40640085 18.00877775 6.42326427-1.92832306 5.40640085zM796.24220831 628.89012518l1.92832306-5.40640085 18.00877775 6.42326427-1.92832306 5.40640085zM773.09663503 636.87928162l1.92832306-5.40640086 36.0175555 12.84652854-1.92832306 5.40640085z"/><path class="cls-5" d="M714.96439818 654.7160692l177.94659257-498.90530794 3.59798802 1.28330908L718.5623862 655.99937828zM694.24 647.3l-5.4-1.93 175.36-491.7a5.74 5.74 0 0 1 7.33-3.48zM694.25477966 647.32943298l177.30157858-497.0968951 5.40640085 1.92832305-177.30157858 497.09689511z"/><path class="cls-5" d="M699.65065376 649.24886708l177.30157859-497.09689511 5.40640085 1.92832306-177.30157858 497.0968951z"/><circle class="cls-5" cx="748.77" cy="642.39" r="8.6" transform="rotate(-70.37 748.80507071 642.39269631)"/><path class="cls-3" d="M744.92 653.2a11.47 11.47 0 1 1 14.66-7 11.49 11.49 0 0 1-14.66 7zm5.78-16.2a5.74 5.74 0 1 0 3.48 7.33 5.74 5.74 0 0 0-3.48-7.33z"/><circle class="cls-5" cx="910.13" cy="184.27" r="8.6" transform="rotate(-70.37 910.14891089 184.25789047)"/><path class="cls-3" d="M906.27 195.07a11.47 11.47 0 1 1 14.66-7 11.49 11.49 0 0 1-14.66 7zm5.78-16.21a5.74 5.74 0 1 0 3.48 7.33 5.74 5.74 0 0 0-3.48-7.33z"/><path class="cls-3" d="M781.13 684.38l-84-30a16.63 16.63 0 0 1-10.06-21.22l170-476.63a16.63 16.63 0 0 1 21.22-10.06l84 30a16.63 16.63 0 0 1 10.06 21.22l-170 476.63a16.63 16.63 0 0 1-21.22 10.06zm95.23-532.46a10.88 10.88 0 0 0-13.89 6.59l-170 476.63a10.88 10.88 0 0 0 6.6 13.86l84 30a10.88 10.88 0 0 0 13.89-6.59l170-476.63a10.88 10.88 0 0 0-6.59-13.89z"/><path class="cls-20" d="M856.8 328.09a83.34 83.34 0 0 1 4.28-22.28 50 50 0 0 1 8.59-16.25 28.51 28.51 0 0 1 15.53-9.92l.4 1.87a26.61 26.61 0 0 0-14.46 9.28 48.16 48.16 0 0 0-8.25 15.64 81.45 81.45 0 0 0-4.18 21.77zM796.24 349a26.93 26.93 0 0 1-3.88-1.74l.92-1.68c12.74 7 30.34 2.09 37.67-10.44 2.13-3.64 3.64-8.09 4.75-14 1.87-10 1.72-18.94-.46-26.62-2.6-9.15-8.26-16.68-15.53-20.66l.92-1.68c7.72 4.22 13.72 12.17 16.45 21.82 2.26 8 2.43 17.21.5 27.49-1.15 6.14-2.73 10.79-5 14.63-7.09 12.09-23.24 17.5-36.34 12.88z"/><path class="cls-20" d="M799.77 327.24l.18-1.9c7.72.75 15.55-5.26 17.45-13.39 1.74-7.48-1.41-16.23-7.85-21.79l1.25-1.45c7 6 10.37 15.53 8.47 23.68-2.11 9.02-10.85 15.69-19.5 14.85zM727.2 553.73a15.62 15.62 0 0 1-3.84-2l1.11-1.56c3.62 2.59 8.25 3.26 13.36 1.95 11.15-2.86 23.06-14.51 30.35-29.68 3.29-6.85 6.09-14.92 8.82-25.4 4.58-17.62 6.67-33 6.21-45.62-.54-15-4.81-26.46-11.71-31.38l1.11-1.56c7.39 5.27 11.94 17.25 12.51 32.87.46 12.84-1.65 28.37-6.27 46.17-2.76 10.6-5.6 18.78-8.94 25.75C762.38 538.92 750 551 738.31 554a18.84 18.84 0 0 1-11.11-.27z"/><path class="cls-20" d="M736.69 516l-.15-1.91c8.21-.66 18.66-13.46 22.81-28 3.86-13.48 2.63-27.87-3.06-35.81l1.55-1.12c6.11 8.52 7.42 23.22 3.35 37.45-4.43 15.48-15.42 28.64-24.5 29.39zm131.6-54.07c-7.72-4.22-13.72-12.17-16.45-21.82-2.26-8-2.43-17.21-.5-27.49 1.15-6.14 2.73-10.79 5-14.63 7.83-13.38 26.63-18.6 40.24-11.15l-.92 1.68c-12.73-7-30.34-2.09-37.67 10.44-2.13 3.64-3.64 8.09-4.75 14-1.87 10-1.72 18.94.46 26.62 2.6 9.15 8.26 16.68 15.53 20.66z"/><path class="cls-20" d="M878.12 445.35c-7-6-10.37-15.53-8.47-23.68 2.11-9 10.85-15.7 19.5-14.86l-.18 1.9c-7.72-.75-15.55 5.26-17.45 13.39-1.74 7.48 1.41 16.23 7.85 21.79zM799.3 650.49c-10.91-6-19.39-17.21-23.26-30.85-3.2-11.29-3.44-24.41-.7-39 1.63-8.71 3.87-15.29 7-20.72 11.06-18.89 37.6-26.25 56.81-15.74l-.92 1.68c-18.33-10-43.68-3-54.24 15-3.06 5.23-5.23 11.61-6.82 20.1-2.68 14.29-2.46 27.12.66 38.12 3.73 13.15 11.87 24 22.33 29.69z"/><path class="cls-20" d="M813.36 626.91c-9.81-8.47-14.61-21.87-11.94-33.35 3-12.68 15.23-22 27.36-20.87l-.18 1.9c-11.21-1.09-22.56 7.62-25.31 19.4-2.52 10.8 2 23.44 11.32 31.46z"/><path class="cls-3" d="M708.01278275 640.04892287l170.23665978-477.28912335 5.40640085 1.92832306L713.4191836 641.97724593z"/><path class="cls-20" d="M801.51 496.08c-2.21-6.08-5-13.64-4.77-21.3.15-6 2-11.75 3.89-17.31 1-3.14 2.11-6.38 2.85-9.61a52.3 52.3 0 0 0-16.65-50.19l1.24-1.45a54.26 54.26 0 0 1 17.27 52.07c-.76 3.32-1.84 6.61-2.9 9.79-1.8 5.43-3.65 11-3.79 16.76-.18 7.29 2.5 14.67 4.65 20.6zm72.06-236.2c-2.21-6.08-5-13.64-4.77-21.3.15-6 2-11.75 3.89-17.31 1-3.14 2.11-6.38 2.85-9.61a52.3 52.3 0 0 0-16.65-50.19l1.24-1.45a54.26 54.26 0 0 1 17.27 52.07c-.76 3.32-1.84 6.61-2.9 9.79-1.8 5.43-3.65 11-3.79 16.76-.18 7.29 2.5 14.67 4.65 20.6zm53.65 37.41c-2.21-6.08-5-13.64-4.77-21.3.15-6 2-11.75 3.89-17.31 1-3.14 2.11-6.38 2.85-9.61a52.3 52.3 0 0 0-16.65-50.19l1.24-1.45a54.26 54.26 0 0 1 17.27 52.07c-.76 3.32-1.84 6.61-2.9 9.79-1.8 5.43-3.65 11-3.79 16.76-.18 7.29 2.5 14.67 4.65 20.6zm-199.57 364.8l-1.61-1c3.63-5.71 3.24-13 2.86-20-.1-1.83-.2-3.66-.23-5.46a136.2 136.2 0 0 1 1.33-18.4c1.41-11.72 2.75-22.8-1.53-33.12-3.09-7.45-9-13.61-14.26-18.79l1.34-1.36c5.41 5.31 11.46 11.64 14.69 19.42 4.48 10.79 3 22.63 1.67 34.08a134.62 134.62 0 0 0-1.37 18.12c0 1.77.13 3.57.22 5.38.44 7.33.85 14.9-3.11 21.13z"/></g></g></svg>