<svg xmlns="http://www.w3.org/2000/svg" viewBox="0 0 827.91 759.55"><defs><style>.cls-19,.cls-24,.cls-3{fill:none;stroke:#314e5d;stroke-miterlimit:10}.cls-3{stroke-width:8px}.cls-4{fill:#ffc4a5}.cls-5{fill:#314e5d}.cls-8{fill:#42efe2}.cls-9{fill:#fcfcfc}.cls-12{fill:#fff}.cls-14{fill:#ffe48d}.cls-18{fill:#fff2cf}.cls-19{stroke-width:9px}.cls-21{fill:#b8f9f5}.cls-23{fill:#f6c240}.cls-24{stroke-width:7px}</style></defs><g id="Layer_2" data-name="Layer 2"><g id="Layer_1-2" data-name="Layer 1"><ellipse cx="61.64" cy="570.44" rx="56.29" ry="174.56" transform="rotate(-1.86 61.60339762 570.36129914)" fill="#fb8a51"/><path d="M118.75 610.61c-3.58 76.28-23.9 133.39-50.3 134.25-11.39.37-23.17-10.58-26.81-20.51 17.65-5.91 30.75-14.4 41.19-30.45 16.1-24.72 29.67-54.42 35.92-83.29z" fill="#dc7948"/><ellipse class="cls-3" cx="61.64" cy="570.44" rx="56.29" ry="174.56" transform="rotate(-1.86 61.60339762 570.36129914)"/><ellipse class="cls-4" cx="42.87" cy="552.84" rx="19.9" ry="54.02" transform="rotate(-1.86 42.78648174 552.8024719)"/><circle class="cls-4" cx="45.12" cy="622.17" r="6.25" transform="rotate(-1.86 45.04964423 622.16079565)"/><path class="cls-5" d="M78.59 446.54c11.64 19.07 14.31 39.92 16.79 61.7 2.54 22.31 4.51 44.74 2.29 67.16-.19 1.92 2.81 1.91 3 0 2.35-23.75 0-47.49-2.74-71.1-2.43-21-5.56-40.95-16.75-59.27-1-1.65-3.6-.14-2.59 1.51z"/><path d="M7.94 355.72c2.19-42.88 61-117.29 61-117.29s50.6 80 48.41 122.88-30.61 57.09-60.81 55.55-50.79-18.26-48.6-61.14z" fill="#bc7947"/><path d="M68.92 238.43s-2.55 3.22-6.59 8.7c13.8 23.76 43.1 78.4 41.43 111.25-2.19 42.88-30.58 57.09-60.79 55.55-1.62-.08-3.21-.22-4.77-.39a66.88 66.88 0 0 0 18.34 3.32c30.21 1.54 58.6-12.67 60.79-55.55S68.92 238.43 68.92 238.43z" fill="#9d653d"/><path class="cls-8" d="M68.77 238.42l-41.95 63s13.18 28.7 46.79 13.12c0 0 18.7-12.92 37.67 11.3 0 0-7.13-22.12-42.51-87.42z"/><ellipse class="cls-9" cx="46.24" cy="295.34" rx="10.19" ry="4.28" transform="rotate(-54.08 46.24781475 295.33884763)"/><ellipse class="cls-9" cx="57.06" cy="281.33" rx="4.81" ry="2.02" transform="rotate(-54.08 57.05747206 281.32135482)"/><path class="cls-5" d="M24.1 304.74a35 35 0 0 0 20.65 17.86c9 2.79 18.51 1.25 27.11-2.19 1.77-.71 3.3-1.59 5-2.4.4-.19.81-.36 1.22-.54.14-.06.89-.34.28-.12l.86-.29a24.68 24.68 0 0 1 4.08-.91c10.3-1.4 19.44 5.74 25.69 13.62 2.36 3 6.72-1 4.37-3.95C107 317.85 98.47 311 88 310.19a27.17 27.17 0 0 0-15.17 3.29A37.1 37.1 0 0 1 51 318a27.43 27.43 0 0 1-15.92-8.06 35.78 35.78 0 0 1-2.72-3.09c-.35-.45-.69-.91-1-1.37s.24.38-.15-.22l-.36-.55a22.48 22.48 0 0 1-1.52-2.71c-1.59-3.44-6.82-.73-5.23 2.71z"/><path class="cls-3" d="M8.91 355.31c2.19-42.88 61-117.29 61-117.29s50.6 80 48.41 122.88-30.61 57.1-60.81 55.55-50.79-18.26-48.6-61.14z"/><ellipse cx="47.11" cy="349.31" rx="21.61" ry="7.96" transform="rotate(-82.5 47.88825561 350.517962)" fill="#d0a07b"/><rect x="4.03" y="387.13" width="110.31" height="44.35" rx="19.5" ry="19.5" transform="rotate(-.64 58.60613276 406.77770989)" fill="#d8d9d9"/><path class="cls-12" d="M82.11 391.89l-49 .54a16.38 16.38 0 0 0 16.56 16.2l16.28-.18a16.38 16.38 0 0 0 16.16-16.56z"/><rect class="cls-3" x="4.03" y="387.13" width="110.31" height="44.35" rx="19.5" ry="19.5" transform="rotate(179.36 59.16591273 409.30320511)"/><path class="cls-5" d="M28.59 377a30.88 30.88 0 0 1 6.63-29.07c1.28-1.44-.84-3.57-2.12-2.12a34 34 0 0 0-7.4 32 1.5 1.5 0 0 0 2.89-.8z"/><path class="cls-5" d="M34.22 366.05a11.53 11.53 0 0 1 4.16-11.27c1.49-1.23-.64-3.34-2.12-2.12a14.52 14.52 0 0 0-4.93 14.19c.38 1.89 3.27 1.09 2.89-.8zM88.55 370a18.11 18.11 0 0 0 3.8-23.19c-1-1.65-3.59-.14-2.59 1.51a15.12 15.12 0 0 1-3.33 19.55c-1.48 1.24.65 3.35 2.12 2.12z"/><path d="M689.07 317.19L729.5 287a19.56 19.56 0 0 1 27.37 4l61.65 82.5a19.56 19.56 0 0 1-4 27.37l-129 96.37a18.54 18.54 0 0 0-3.75 25.94" stroke-width="11" fill="none" stroke="#314e5d" stroke-miterlimit="10"/><path class="cls-14" transform="rotate(-38.78 460.02653068 246.37070807)" d="M336.31 29.74h247.45V463H336.31z"/><path d="M815.86 652.34L772 685.08a16.46 16.46 0 0 1-23-3.32l-79.58-124.88a16.46 16.46 0 0 1 3.32-23L699 514.27a16.46 16.46 0 0 1 23 3.32l97.18 111.78a16.46 16.46 0 0 1-3.32 22.97z" fill="#f65020"/><path d="M765.7 671.9L686.05 547a16.46 16.46 0 0 1 3.32-23L674 535.56a16.46 16.46 0 0 0-3.32 23l79.62 124.85a16.46 16.46 0 0 0 23 3.32l15.4-11.51a16.46 16.46 0 0 1-23-3.32z" fill="#ff7b52"/><rect class="cls-14" x="458.05" y="351.7" width="258.13" height="101.6" rx="44.67" ry="44.67" transform="rotate(-36.77 587.05573551 402.48248383)"/><path d="M684.6 373.37L533.75 486.08a35 35 0 0 1-48.87-7.08l5.34 7.15a35 35 0 0 0 48.86 7.07l150.86-112.7a35 35 0 0 0 7.06-48.86l-5.34-7.15a35 35 0 0 1-7.06 48.86z" fill="#f9c441"/><path class="cls-18" d="M630.83 307.28L482.6 418c-15.11 11.29-18.08 33.12-6.58 48.5l2 2.67a34.48 34.48 0 0 1 12-37.86l148.23-110.72c15.11-11.29 36.88-7.95 48.38 7.43l17 22.79a35.14 35.14 0 0 0-5.43-10.64l-19-25.46c-11.49-15.38-33.26-18.71-48.37-7.43z"/><path class="cls-18" d="M487.87 474.26C553 425.61 618.64 377.68 683.77 329c3.89-2.9 5.88-7.78 3.23-12.31-2.24-3.83-8.4-6.15-12.31-3.23-65.12 48.65-130.78 96.58-195.9 145.23-3.89 2.9-5.88 7.78-3.23 12.31 2.24 3.83 8.4 6.15 12.31 3.23z"/><rect class="cls-19" x="457.85" y="349.71" width="258.13" height="101.6" rx="44.67" ry="44.67" transform="rotate(-37 584.965 399.955)"/><path class="cls-19" d="M815.45 651.79l-43.82 32.75a16.46 16.46 0 0 1-23-3.32L669 556.33a16.46 16.46 0 0 1 3.32-23l26.29-19.65a16.46 16.46 0 0 1 23 3.32l97.18 111.78a16.46 16.46 0 0 1-3.34 23.01z"/><path class="cls-12" d="M780.81 614.51a120.76 120.76 0 0 0 11.61 14.18c2.05 2.26 4.14 4.52 6 7 1.06 1.41 2.5 2.78 1.54 4.74-.58 1.18-3 2.26-4.07 2.88-5 3-.44 10.76 4.54 7.77 7.35-4.41 12.15-10.44 6.77-18.54S794 618.12 788.58 610c-3.19-4.81-11-.3-7.77 4.54z"/><path d="M544.39 366.31v351.45a39.9 39.9 0 0 1-39.9 39.9H192.95a39.9 39.9 0 0 1-39.9-39.9V488.42a17.87 17.87 0 0 1-2.53.19 16.87 16.87 0 0 1 0-33.74 17.87 17.87 0 0 1 2.53.19v-88.75z" fill="#e8f0f9"/><rect class="cls-21" x="126.05" y="331.73" width="436.89" height="32.05" rx="12" ry="12"/><path d="M439.68 462.62c-.24 12.71 7.2 25.11 19 30.22 3.71 1.61 8 1.1 10.26-2.69 1.85-3.17 1-8.64-2.69-10.26-7.18-3.11-11.69-9.32-11.54-17.27.19-9.66-14.81-9.66-15 0z" fill="#f2f0e7"/><path class="cls-14" d="M405.59 368.85c-.86 25-1.73 50.2 1.32 75.11 1 8.3 1.6 22.08 11.19 25.72 8.13 3.09 14-5 16-11.92 4.15-14.35 1.44-30 3.72-44.62.61-3.94 1.85-8.28 5.31-10.28 3.15-1.82 7.29-1 10.3 1 6.26 4.22 8.23 12.59 8.15 20.14-.26 24-.79 48.06-1.05 72.11-.09 8.56.94 19 8.72 22.56 6.76 3.1 15-1.51 18.59-8s3.62-14.33 3.6-21.76l-.31-123.4"/><circle class="cls-14" cx="313.8" cy="265.81" r="36.39"/><path class="cls-23" d="M313.8 229.42a36.21 36.21 0 0 0-21.23 6.84h.76a36.38 36.38 0 0 1 21.23 65.94 36.38 36.38 0 0 0-.76-72.76z"/><circle class="cls-24" cx="314.37" cy="268.66" r="36.39"/><path d="M551.14 328.36H514a10.15 10.15 0 0 1 10.12 10.12v11.81A10.15 10.15 0 0 1 514 360.41h37.11a10.15 10.15 0 0 0 10.12-10.12v-11.81a10.15 10.15 0 0 0-10.09-10.12z" fill="#3cd8d6"/><path class="cls-8" d="M176.66 352v-11.83A10.15 10.15 0 0 1 186.78 330h-48.92a10.15 10.15 0 0 0-10.12 10.12V352a10.15 10.15 0 0 0 10.12 10.12h48.92A10.15 10.15 0 0 1 176.66 352z"/><path class="cls-12" d="M181.72 714.38V485a17.87 17.87 0 0 1-2.53.19 16.87 16.87 0 0 1 0-33.74 17.87 17.87 0 0 1 2.53.19v-88.7h-32.05v88.75a17.87 17.87 0 0 0-2.53-.19 16.87 16.87 0 1 0 0 33.74 17.87 17.87 0 0 0 2.53-.19v229.33a39.9 39.9 0 0 0 39.9 39.9h32.05a39.9 39.9 0 0 1-39.9-39.9z"/><path class="cls-12" d="M192.59 368.84v362.67c0 11 17.06 11 17.06 0V368.84c0-11-17.06-11-17.06 0z"/><path class="cls-3" d="M132 471.74c0 23.55 0 47.1-.15 70.64-.26 36.72 19.72 71.46 52.92 88.14 29.34 14.74 65.29 13.63 94.64-.48 27.68-13.3 44.52-47.44 44.52-77.29v-79.27"/><path d="M503.91 368v351.45a39.9 39.9 0 0 1-39.9 39.9h37.11a39.9 39.9 0 0 0 39.9-39.9V368z" fill="#bcd9ea"/><circle class="cls-14" cx="389.99" cy="197.58" r="18.19"/><path class="cls-23" d="M390 179.39a18.11 18.11 0 0 0-10.61 3.42h.38a18.19 18.19 0 0 1 10.61 33 18.19 18.19 0 0 0-.38-36.38z"/><circle class="cls-24" cx="384.88" cy="197.01" r="25.02"/><circle class="cls-14" cx="313.8" cy="137.31" r="20.47" transform="matrix(.02 -1 1 .02 171.11 448.71)"/><path class="cls-23" d="M314.16 116.85a20.37 20.37 0 0 0-12 3.64h.43a20.47 20.47 0 0 1 11.3 37.29 20.47 20.47 0 0 0 .28-40.93z"/><circle class="cls-24" cx="313.8" cy="137.31" r="19.9"/><circle class="cls-21" cx="322.99" cy="464.57" r="23.62"/><circle cx="324.68" cy="462.88" r="23.62" stroke-width="14" fill="none" stroke="#314e5d" stroke-miterlimit="10"/><path class="cls-3" d="M542.28 364.2v351.45a39.9 39.9 0 0 1-39.9 39.9H190.84a39.9 39.9 0 0 1-39.9-39.9V486.31a17.87 17.87 0 0 1-2.53.19 16.87 16.87 0 0 1 0-33.74 17.87 17.87 0 0 1 2.53.19V364.2z"/><rect class="cls-3" x="125.63" y="331.31" width="436.89" height="32.05" rx="12" ry="12"/></g></g></svg>